<svg data-v-423bf9ae="" xmlns="http://www.w3.org/2000/svg" viewBox="0 0 477 183" class="iconLeftSlogan"><!----><!----><!----><g data-v-423bf9ae="" id="305c2ab7-ebd7-4c89-8cb9-4d9895e8b189" fill="white" transform="matrix(4.754358768463135,0,0,4.754358768463135,195.52825927734375,-19.87322235107422)"><path d="M3.27 6.00L7.85 6.00L7.85 4.36L1.37 4.36L1.37 13.52L7.85 13.52L7.85 11.84L3.27 11.84L3.27 9.63L7.31 9.63L7.31 8.08L3.27 8.08ZM19.39 13.52L19.39 4.29L18.55 4.29L14.86 8.24L11.14 4.29L10.31 4.29L10.31 13.52L12.21 13.52L12.21 7.78L14.59 10.38L15.15 10.38L17.49 7.78L17.49 13.52ZM24.55 6.44C22.78 6.44 21.34 7.81 21.34 10.12C21.34 12.41 22.78 13.73 24.43 13.73C25.46 13.73 26.24 13.10 26.65 12.36L26.65 13.52L28.38 13.52L28.38 6.62L26.65 6.62L26.65 7.40C26.13 6.82 25.31 6.44 24.55 6.44ZM24.91 8.13C25.58 8.13 26.15 8.48 26.65 9.00L26.65 9.98C26.66 11.22 25.79 11.99 24.87 11.99C23.83 11.99 23.15 11.16 23.15 10.12C23.15 9.08 23.83 8.13 24.91 8.13ZM34.34 6.44C33.41 6.44 32.68 7.04 32.25 7.60L32.25 6.62L30.52 6.62L30.52 13.52L32.25 13.52L32.25 9.15C32.65 8.60 33.20 8.13 33.81 8.13C34.59 8.13 35.07 8.59 35.07 9.52L35.08 13.52L36.82 13.52L36.82 9.28C36.82 7.40 35.75 6.44 34.34 6.44ZM41.62 4.18C39.91 4.18 38.36 5.28 38.36 6.96C38.36 8.03 38.76 8.96 40.18 9.50L41.59 10.05C42.12 10.24 42.66 10.53 42.66 11.01C42.66 11.61 42.03 11.91 41.26 11.91C40.17 11.91 39.18 11.44 38.39 10.87L38.39 12.74C39.13 13.26 40.15 13.70 41.22 13.70C43.12 13.70 44.69 12.54 44.69 10.91C44.69 9.90 44.12 9.12 42.83 8.57L41.71 8.11C40.95 7.79 40.35 7.56 40.35 6.96C40.35 6.26 41.14 5.96 41.85 5.96C42.79 5.96 43.52 6.37 44.17 6.78L44.17 4.91C43.59 4.53 42.68 4.18 41.62 4.18ZM53.27 6.62L51.28 6.62L49.37 11.02L47.40 6.62L45.38 6.62L48.36 13.02L46.28 16.80L48.25 16.80ZM56.70 6.44C55.14 6.44 54.04 7.33 54.04 8.63C54.04 9.50 54.39 10.14 55.44 10.50L56.29 10.80C56.89 11.01 57.20 11.16 57.20 11.51C57.20 11.96 56.82 12.22 56.12 12.22C55.45 12.22 54.52 11.87 54.00 11.51L54.00 13.03C54.47 13.37 55.43 13.73 56.36 13.73C57.83 13.73 59.04 12.78 59.04 11.51C59.04 10.62 58.53 10.01 57.46 9.69L56.68 9.43C56.07 9.24 55.89 9.01 55.89 8.71C55.89 8.30 56.30 7.97 56.96 7.97C57.64 7.97 58.31 8.31 58.73 8.60L58.73 7.07C58.34 6.73 57.56 6.44 56.70 6.44Z"></path></g><!----><g data-v-423bf9ae="" id="cdb6f589-12c9-463f-8c86-fdf87fe9dfa1" transform="matrix(1.4222391843795776,0,0,1.4222391843795776,0.9784218668937683,0.9758487343788147)" stroke="none" fill="white"><path d="M64 30a20 20 0 0 0-20 20v8.32a8.46 8.46 0 0 0-8 8.43v17A16.22 16.22 0 0 0 52.2 100h23.6A16.22 16.22 0 0 0 92 83.78v-17a8.46 8.46 0 0 0-8-8.43V50a20 20 0 0 0-20-20zm0 4a16 16 0 0 1 16 16v8.29H48V50a16 16 0 0 1 16-16zm24 32.77v17A12.22 12.22 0 0 1 75.8 96H52.2A12.22 12.22 0 0 1 40 83.78v-17a4.46 4.46 0 0 1 4.46-4.46h39.08A4.46 4.46 0 0 1 88 66.77z"></path><path d="M64 67.48a6.79 6.79 0 0 0-2 13.28v6a2 2 0 0 0 4 0v-6a6.79 6.79 0 0 0-2-13.28zm0 9.58a2.79 2.79 0 1 1 2.79-2.79 2.8 2.8 0 0 1-2.79 2.8zM46 8H19.8a10 10 0 1 0 0 4H44v19a2 2 0 0 0 4 0V10a2 2 0 0 0-2-2zm-36 8a6 6 0 1 1 6-6 6 6 0 0 1-6 6zM10 74a10 10 0 0 0 9.8-8H30a2 2 0 0 0 0-4H19.8A10 10 0 1 0 10 74zm0-16a6 6 0 1 1-6 6 6 6 0 0 1 6-6zM10 128a10 10 0 0 0 9.8-8H46a2 2 0 0 0 2-2v-13a2 2 0 0 0-4 0v11H19.8a10 10 0 1 0-9.8 12zm0-16a6 6 0 1 1-6 6 6 6 0 0 1 6-6zM118 0a10 10 0 0 0-9.8 8H82a2 2 0 0 0-2 2v21a2 2 0 0 0 4 0V12h24.2A10 10 0 1 0 118 0zm0 16a6 6 0 1 1 6-6 6 6 0 0 1-6 6zM118 54a10 10 0 0 0-9.8 8H98a2 2 0 0 0 0 4h10.2a10 10 0 1 0 9.8-12zm0 16a6 6 0 1 1 6-6 6 6 0 0 1-6 6zM118 108a10 10 0 0 0-9.8 8H84v-11a2 2 0 0 0-4 0v13a2 2 0 0 0 2 2h26.2a10 10 0 1 0 9.8-12zm0 16a6 6 0 1 1 6-6 6 6 0 0 1-6 6z"></path></g><!----><g data-v-423bf9ae="" id="2a0875cf-53df-4675-9cdd-3c9cf74a20d3" fill="white" transform="matrix(0.6010003685951233,0,0,0.6010003685951233,201.65708923339844,56.58631896972656)"><path d="M0.64 15.68L0.64 5.88L2.88 5.88L4.20 15.18L4.37 15.18L5.68 5.88L7.92 5.88L7.92 15.68L6.83 15.68L6.83 6.38L6.66 6.38L5.35 15.68L3.22 15.68L1.90 6.38L1.74 6.38L1.74 15.68L0.64 15.68ZM22.67 15.68L21.95 13.24L17.75 13.24L17.04 15.68L15.78 15.68L18.75 5.88L20.96 5.88L23.93 15.68L22.67 15.68ZM19.94 6.38L19.77 6.38L18.07 12.15L21.63 12.15L19.94 6.38ZM34.51 5.88L37.34 15.18L37.51 15.18L37.51 5.88L38.68 5.88L38.68 15.68L36.33 15.68L33.50 6.38L33.33 6.38L33.33 15.68L32.16 15.68L32.16 5.88L34.51 5.88ZM53.80 15.68L53.09 13.24L48.89 13.24L48.17 15.68L46.91 15.68L49.88 5.88L52.09 5.88L55.06 15.68L53.80 15.68ZM51.07 6.38L50.90 6.38L49.21 12.15L52.77 12.15L51.07 6.38ZM65.62 12.07L65.62 10.98L69.99 10.98L69.99 15.68L68.89 15.68L68.89 14.50L68.73 14.50L68.73 14.50Q68.49 15.12 67.89 15.50L67.89 15.50L67.89 15.50Q67.28 15.88 66.49 15.88L66.49 15.88L66.49 15.88Q64.90 15.88 64.00 14.85L64.00 14.85L64.00 14.85Q63.10 13.83 63.10 11.87L63.10 11.87L63.10 9.69L63.10 9.69Q63.10 7.78 64.01 6.73L64.01 6.73L64.01 6.73Q64.92 5.68 66.54 5.68L66.54 5.68L66.54 5.68Q67.38 5.68 68.03 5.96L68.03 5.96L68.03 5.96Q68.67 6.23 69.10 6.71L69.10 6.71L69.10 6.71Q69.54 7.20 69.76 7.85L69.76 7.85L69.76 7.85Q69.99 8.50 69.99 9.24L69.99 9.24L69.99 9.41L68.81 9.41L68.81 9.24L68.81 9.24Q68.81 8.76 68.68 8.32L68.68 8.32L68.68 8.32Q68.54 7.87 68.27 7.53L68.27 7.53L68.27 7.53Q68.00 7.18 67.57 6.98L67.57 6.98L67.57 6.98Q67.14 6.78 66.54 6.78L66.54 6.78L66.54 6.78Q65.41 6.78 64.84 7.60L64.84 7.60L64.84 7.60Q64.27 8.43 64.27 9.77L64.27 9.77L64.27 11.79L64.27 11.79Q64.27 13.23 64.84 14.01L64.84 14.01L64.84 14.01Q65.41 14.78 66.57 14.78L66.57 14.78L66.57 14.78Q67.62 14.78 68.22 14.11L68.22 14.11L68.22 14.11Q68.81 13.44 68.81 12.24L68.81 12.24L68.81 12.07L65.62 12.07ZM79.16 15.68L79.16 5.88L85.09 5.88L85.09 6.97L80.33 6.97L80.33 10.22L85.01 10.22L85.01 11.31L80.33 11.31L80.33 14.59L85.18 14.59L85.18 15.68L79.16 15.68ZM112.67 15.68L112.67 12.24L112.42 12.24L109.35 5.88L110.67 5.88L113.18 11.23L113.34 11.23L115.85 5.88L117.17 5.88L114.10 12.24L113.85 12.24L113.85 15.68L112.67 15.68ZM125.38 11.87L125.38 9.69L125.38 9.69Q125.38 7.78 126.29 6.73L126.29 6.73L126.29 6.73Q127.20 5.68 128.83 5.68L128.83 5.68L128.83 5.68Q130.45 5.68 131.36 6.73L131.36 6.73L131.36 6.73Q132.27 7.78 132.27 9.69L132.27 9.69L132.27 11.87L132.27 11.87Q132.27 13.83 131.36 14.85L131.36 14.85L131.36 14.85Q130.45 15.88 128.83 15.88L128.83 15.88L128.83 15.88Q127.20 15.88 126.29 14.85L126.29 14.85L126.29 14.85Q125.38 13.83 125.38 11.87L125.38 11.87ZM128.83 14.78L128.83 14.78L128.83 14.78Q129.96 14.78 130.53 14.01L130.53 14.01L130.53 14.01Q131.10 13.23 131.10 11.79L131.10 11.79L131.10 9.77L131.10 9.77Q131.10 8.43 130.53 7.60L130.53 7.60L130.53 7.60Q129.96 6.78 128.83 6.78L128.83 6.78L128.83 6.78Q127.69 6.78 127.13 7.60L127.13 7.60L127.13 7.60Q126.56 8.43 126.56 9.77L126.56 9.77L126.56 11.79L126.56 11.79Q126.56 13.23 127.13 14.01L127.13 14.01L127.13 14.01Q127.69 14.78 128.83 14.78ZM141.04 5.88L142.21 5.88L142.21 12.38L142.21 12.38Q142.21 13.57 142.76 14.17L142.76 14.17L142.76 14.17Q143.32 14.78 144.40 14.78L144.40 14.78L144.40 14.78Q145.47 14.78 146.03 14.17L146.03 14.17L146.03 14.17Q146.58 13.57 146.58 12.38L146.58 12.38L146.58 5.88L147.76 5.88L147.76 12.38L147.76 12.38Q147.76 14.08 146.86 14.98L146.86 14.98L146.86 14.98Q145.96 15.88 144.40 15.88L144.40 15.88L144.40 15.88Q142.83 15.88 141.93 14.98L141.93 14.98L141.93 14.98Q141.04 14.08 141.04 12.38L141.04 12.38L141.04 5.88ZM163.03 12.15L163.03 15.68L161.85 15.68L161.85 12.40L161.85 12.40Q161.85 12.04 161.69 11.84L161.69 11.84L161.69 11.84Q161.52 11.65 161.10 11.65L161.10 11.65L158.05 11.65L158.05 15.68L156.87 15.68L156.87 5.88L160.37 5.88L160.37 5.88Q161.13 5.88 161.69 6.10L161.69 6.10L161.69 6.10Q162.25 6.31 162.62 6.68L162.62 6.68L162.62 6.68Q162.99 7.04 163.18 7.53L163.18 7.53L163.18 7.53Q163.37 8.01 163.37 8.54L163.37 8.54L163.37 8.96L163.37 8.96Q163.37 9.51 163.06 10.05L163.06 10.05L163.06 10.05Q162.76 10.60 162.13 10.89L162.13 10.89L162.13 11.06L162.13 11.06Q162.55 11.13 162.79 11.40L162.79 11.40L162.79 11.40Q163.03 11.66 163.03 12.15L163.03 12.15ZM158.05 6.97L158.05 10.56L160.23 10.56L160.23 10.56Q161.22 10.56 161.71 10.13L161.71 10.13L161.71 10.13Q162.19 9.70 162.19 8.88L162.19 8.88L162.19 8.62L162.19 8.62Q162.19 7.88 161.71 7.43L161.71 7.43L161.71 7.43Q161.22 6.97 160.23 6.97L160.23 6.97L158.05 6.97ZM187.66 11.87L187.66 9.69L187.66 9.69Q187.66 7.78 188.57 6.73L188.57 6.73L188.57 6.73Q189.48 5.68 191.10 5.68L191.10 5.68L191.10 5.68Q192.72 5.68 193.63 6.73L193.63 6.73L193.63 6.73Q194.54 7.78 194.54 9.69L194.54 9.69L194.54 11.87L194.54 11.87Q194.54 13.83 193.63 14.85L193.63 14.85L193.63 14.85Q192.72 15.88 191.10 15.88L191.10 15.88L191.10 15.88Q189.48 15.88 188.57 14.85L188.57 14.85L188.57 14.85Q187.66 13.83 187.66 11.87L187.66 11.87ZM191.10 14.78L191.10 14.78L191.10 14.78Q192.23 14.78 192.80 14.01L192.80 14.01L192.80 14.01Q193.37 13.23 193.37 11.79L193.37 11.79L193.37 9.77L193.37 9.77Q193.37 8.43 192.80 7.60L192.80 7.60L192.80 7.60Q192.23 6.78 191.10 6.78L191.10 6.78L191.10 6.78Q189.97 6.78 189.40 7.60L189.40 7.60L189.40 7.60Q188.83 8.43 188.83 9.77L188.83 9.77L188.83 11.79L188.83 11.79Q188.83 13.23 189.40 14.01L189.40 14.01L189.40 14.01Q189.97 14.78 191.10 14.78ZM209.73 12.15L209.73 15.68L208.56 15.68L208.56 12.40L208.56 12.40Q208.56 12.04 208.39 11.84L208.39 11.84L208.39 11.84Q208.22 11.65 207.80 11.65L207.80 11.65L204.75 11.65L204.75 15.68L203.57 15.68L203.57 5.88L207.07 5.88L207.07 5.88Q207.83 5.88 208.39 6.10L208.39 6.10L208.39 6.10Q208.95 6.31 209.32 6.68L209.32 6.68L209.32 6.68Q209.69 7.04 209.88 7.53L209.88 7.53L209.88 7.53Q210.07 8.01 210.07 8.54L210.07 8.54L210.07 8.96L210.07 8.96Q210.07 9.51 209.77 10.05L209.77 10.05L209.77 10.05Q209.47 10.60 208.84 10.89L208.84 10.89L208.84 11.06L208.84 11.06Q209.26 11.13 209.50 11.40L209.50 11.40L209.50 11.40Q209.73 11.66 209.73 12.15L209.73 12.15ZM204.75 6.97L204.75 10.56L206.93 10.56L206.93 10.56Q207.93 10.56 208.41 10.13L208.41 10.13L208.41 10.13Q208.89 9.70 208.89 8.88L208.89 8.88L208.89 8.62L208.89 8.62Q208.89 7.88 208.41 7.43L208.41 7.43L208.41 7.43Q207.93 6.97 206.93 6.97L206.93 6.97L204.75 6.97ZM221.30 12.07L221.30 10.98L225.67 10.98L225.67 15.68L224.57 15.68L224.57 14.50L224.41 14.50L224.41 14.50Q224.17 15.12 223.57 15.50L223.57 15.50L223.57 15.50Q222.96 15.88 222.17 15.88L222.17 15.88L222.17 15.88Q220.58 15.88 219.68 14.85L219.68 14.85L219.68 14.85Q218.78 13.83 218.78 11.87L218.78 11.87L218.78 9.69L218.78 9.69Q218.78 7.78 219.69 6.73L219.69 6.73L219.69 6.73Q220.60 5.68 222.22 5.68L222.22 5.68L222.22 5.68Q223.06 5.68 223.71 5.96L223.71 5.96L223.71 5.96Q224.35 6.23 224.78 6.71L224.78 6.71L224.78 6.71Q225.22 7.20 225.44 7.85L225.44 7.85L225.44 7.85Q225.67 8.50 225.67 9.24L225.67 9.24L225.67 9.41L224.49 9.41L224.49 9.24L224.49 9.24Q224.49 8.76 224.36 8.32L224.36 8.32L224.36 8.32Q224.22 7.87 223.95 7.53L223.95 7.53L223.95 7.53Q223.68 7.18 223.25 6.98L223.25 6.98L223.25 6.98Q222.82 6.78 222.22 6.78L222.22 6.78L222.22 6.78Q221.09 6.78 220.52 7.60L220.52 7.60L220.52 7.60Q219.95 8.43 219.95 9.77L219.95 9.77L219.95 11.79L219.95 11.79Q219.95 13.23 220.52 14.01L220.52 14.01L220.52 14.01Q221.09 14.78 222.25 14.78L222.25 14.78L222.25 14.78Q223.30 14.78 223.90 14.11L223.90 14.11L223.90 14.11Q224.49 13.44 224.49 12.24L224.49 12.24L224.49 12.07L221.30 12.07ZM240.62 15.68L239.90 13.24L235.70 13.24L234.99 15.68L233.73 15.68L236.70 5.88L238.91 5.88L241.88 15.68L240.62 15.68ZM237.89 6.38L237.72 6.38L236.03 12.15L239.58 12.15L237.89 6.38ZM252.46 5.88L255.29 15.18L255.46 15.18L255.46 5.88L256.63 5.88L256.63 15.68L254.28 15.68L251.45 6.38L251.29 6.38L251.29 15.68L250.11 15.68L250.11 5.88L252.46 5.88ZM265.83 6.97L265.83 5.88L272.05 5.88L272.05 6.97L269.53 6.97L269.53 14.59L272.05 14.59L272.05 15.68L265.83 15.68L265.83 14.59L268.35 14.59L268.35 6.97L265.83 6.97ZM286.82 9.21L286.82 8.71L286.82 8.71Q286.82 8.23 286.63 7.87L286.63 7.87L286.63 7.87Q286.44 7.50 286.12 7.27L286.12 7.27L286.12 7.27Q285.80 7.03 285.38 6.90L285.38 6.90L285.38 6.90Q284.96 6.78 284.49 6.78L284.49 6.78L284.49 6.78Q284.09 6.78 283.72 6.88L283.72 6.88L283.72 6.88Q283.36 6.99 283.07 7.18L283.07 7.18L283.07 7.18Q282.79 7.38 282.62 7.66L282.62 7.66L282.62 7.66Q282.45 7.95 282.45 8.33L282.45 8.33L282.45 8.41L282.45 8.41Q282.45 8.82 282.62 9.11L282.62 9.11L282.62 9.11Q282.79 9.39 283.12 9.60L283.12 9.60L283.12 9.60Q283.44 9.80 283.93 9.93L283.93 9.93L283.93 9.93Q284.42 10.07 285.08 10.16L285.08 10.16L285.08 10.16Q286.62 10.40 287.35 11.07L287.35 11.07L287.35 11.07Q288.08 11.73 288.08 12.85L288.08 12.85L288.08 13.02L288.08 13.02Q288.08 13.65 287.86 14.17L287.86 14.17L287.86 14.17Q287.64 14.70 287.22 15.08L287.22 15.08L287.22 15.08Q286.79 15.46 286.16 15.67L286.16 15.67L286.16 15.67Q285.53 15.88 284.70 15.88L284.70 15.88L284.70 15.88Q283.77 15.88 283.05 15.60L283.05 15.60L283.05 15.60Q282.32 15.33 281.84 14.85L281.84 14.85L281.84 14.85Q281.36 14.36 281.11 13.71L281.11 13.71L281.11 13.71Q280.85 13.06 280.85 12.29L280.85 12.29L280.85 11.87L282.03 11.87L282.03 12.21L282.03 12.21Q282.03 13.50 282.74 14.14L282.74 14.14L282.74 14.14Q283.44 14.78 284.70 14.78L284.70 14.78L284.70 14.78Q285.80 14.78 286.35 14.30L286.35 14.30L286.35 14.30Q286.90 13.82 286.90 13.02L286.90 13.02L286.90 12.94L286.90 12.94Q286.90 12.17 286.34 11.76L286.34 11.76L286.34 11.76Q285.77 11.35 284.49 11.17L284.49 11.17L284.49 11.17Q283.75 11.07 283.16 10.87L283.16 10.87L283.16 10.87Q282.56 10.67 282.14 10.34L282.14 10.34L282.14 10.34Q281.72 10.01 281.50 9.55L281.50 9.55L281.50 9.55Q281.27 9.09 281.27 8.46L281.27 8.46L281.27 8.29L281.27 8.29Q281.27 7.71 281.51 7.24L281.51 7.24L281.51 7.24Q281.75 6.76 282.18 6.41L282.18 6.41L282.18 6.41Q282.60 6.06 283.20 5.87L283.20 5.87L283.20 5.87Q283.79 5.68 284.51 5.68L284.51 5.68L284.51 5.68Q285.33 5.68 285.99 5.92L285.99 5.92L285.99 5.92Q286.64 6.16 287.08 6.56L287.08 6.56L287.08 6.56Q287.53 6.96 287.76 7.50L287.76 7.50L287.76 7.50Q287.99 8.04 287.99 8.62L287.99 8.62L287.99 9.21L286.82 9.21ZM302.89 15.68L302.18 13.24L297.98 13.24L297.26 15.68L296.00 15.68L298.97 5.88L301.18 5.88L304.15 15.68L302.89 15.68ZM300.16 6.38L299.99 6.38L298.30 12.15L301.85 12.15L300.16 6.38ZM312.20 6.97L312.20 5.88L319.09 5.88L319.09 6.97L316.23 6.97L316.23 15.68L315.06 15.68L315.06 6.97L312.20 6.97ZM328.10 6.97L328.10 5.88L334.32 5.88L334.32 6.97L331.80 6.97L331.80 14.59L334.32 14.59L334.32 15.68L328.10 15.68L328.10 14.59L330.62 14.59L330.62 6.97L328.10 6.97ZM343.34 11.87L343.34 9.69L343.34 9.69Q343.34 7.78 344.25 6.73L344.25 6.73L344.25 6.73Q345.16 5.68 346.78 5.68L346.78 5.68L346.78 5.68Q348.40 5.68 349.31 6.73L349.31 6.73L349.31 6.73Q350.22 7.78 350.22 9.69L350.22 9.69L350.22 11.87L350.22 11.87Q350.22 13.83 349.31 14.85L349.31 14.85L349.31 14.85Q348.40 15.88 346.78 15.88L346.78 15.88L346.78 15.88Q345.16 15.88 344.25 14.85L344.25 14.85L344.25 14.85Q343.34 13.83 343.34 11.87L343.34 11.87ZM346.78 14.78L346.78 14.78L346.78 14.78Q347.91 14.78 348.48 14.01L348.48 14.01L348.48 14.01Q349.05 13.23 349.05 11.79L349.05 11.79L349.05 9.77L349.05 9.77Q349.05 8.43 348.48 7.60L348.48 7.60L348.48 7.60Q347.91 6.78 346.78 6.78L346.78 6.78L346.78 6.78Q345.65 6.78 345.08 7.60L345.08 7.60L345.08 7.60Q344.51 8.43 344.51 9.77L344.51 9.77L344.51 11.79L344.51 11.79Q344.51 13.23 345.08 14.01L345.08 14.01L345.08 14.01Q345.65 14.78 346.78 14.78ZM361.44 5.88L364.27 15.18L364.43 15.18L364.43 5.88L365.61 5.88L365.61 15.68L363.26 15.68L360.43 6.38L360.26 6.38L360.26 15.68L359.09 15.68L359.09 5.88L361.44 5.88Z"></path></g></svg>