<svg data-v-423bf9ae="" xmlns="http://www.w3.org/2000/svg" viewBox="0 0 274.1838678192172 60" class="font"><!----><!----><!----><g data-v-423bf9ae="" id="776c2183-032e-4e0f-aa63-55dcfbe29a69" fill="white" transform="matrix(4.754358768463135,0,0,4.754358768463135,-6.513481140136719,-19.87322235107422)"><path d="M3.27 6.00L7.85 6.00L7.85 4.36L1.37 4.36L1.37 13.52L7.85 13.52L7.85 11.84L3.27 11.84L3.27 9.63L7.31 9.63L7.31 8.08L3.27 8.08ZM19.39 13.52L19.39 4.29L18.55 4.29L14.86 8.24L11.14 4.29L10.31 4.29L10.31 13.52L12.21 13.52L12.21 7.78L14.59 10.38L15.15 10.38L17.49 7.78L17.49 13.52ZM24.55 6.44C22.78 6.44 21.34 7.81 21.34 10.12C21.34 12.41 22.78 13.73 24.43 13.73C25.46 13.73 26.24 13.10 26.65 12.36L26.65 13.52L28.38 13.52L28.38 6.62L26.65 6.62L26.65 7.40C26.13 6.82 25.31 6.44 24.55 6.44ZM24.91 8.13C25.58 8.13 26.15 8.48 26.65 9.00L26.65 9.98C26.66 11.22 25.79 11.99 24.87 11.99C23.83 11.99 23.15 11.16 23.15 10.12C23.15 9.08 23.83 8.13 24.91 8.13ZM34.34 6.44C33.41 6.44 32.68 7.04 32.25 7.60L32.25 6.62L30.52 6.62L30.52 13.52L32.25 13.52L32.25 9.15C32.65 8.60 33.20 8.13 33.81 8.13C34.59 8.13 35.07 8.59 35.07 9.52L35.08 13.52L36.82 13.52L36.82 9.28C36.82 7.40 35.75 6.44 34.34 6.44ZM41.62 4.18C39.91 4.18 38.36 5.28 38.36 6.96C38.36 8.03 38.76 8.96 40.18 9.50L41.59 10.05C42.12 10.24 42.66 10.53 42.66 11.01C42.66 11.61 42.03 11.91 41.26 11.91C40.17 11.91 39.18 11.44 38.39 10.87L38.39 12.74C39.13 13.26 40.15 13.70 41.22 13.70C43.12 13.70 44.69 12.54 44.69 10.91C44.69 9.90 44.12 9.12 42.83 8.57L41.71 8.11C40.95 7.79 40.35 7.56 40.35 6.96C40.35 6.26 41.14 5.96 41.85 5.96C42.79 5.96 43.52 6.37 44.17 6.78L44.17 4.91C43.59 4.53 42.68 4.18 41.62 4.18ZM53.27 6.62L51.28 6.62L49.37 11.02L47.40 6.62L45.38 6.62L48.36 13.02L46.28 16.80L48.25 16.80ZM56.70 6.44C55.14 6.44 54.04 7.33 54.04 8.63C54.04 9.50 54.39 10.14 55.44 10.50L56.29 10.80C56.89 11.01 57.20 11.16 57.20 11.51C57.20 11.96 56.82 12.22 56.12 12.22C55.45 12.22 54.52 11.87 54.00 11.51L54.00 13.03C54.47 13.37 55.43 13.73 56.36 13.73C57.83 13.73 59.04 12.78 59.04 11.51C59.04 10.62 58.53 10.01 57.46 9.69L56.68 9.43C56.07 9.24 55.89 9.01 55.89 8.71C55.89 8.30 56.30 7.97 56.96 7.97C57.64 7.97 58.31 8.31 58.73 8.60L58.73 7.07C58.34 6.73 57.56 6.44 56.70 6.44Z"></path></g><!----><!----></svg>